<?xml version="1.0" encoding="UTF-8" standalone="no"?>
<svg
   xmlns:dc="http://purl.org/dc/elements/1.1/"
   xmlns:cc="http://creativecommons.org/ns#"
   xmlns:rdf="http://www.w3.org/1999/02/22-rdf-syntax-ns#"
   xmlns:svg="http://www.w3.org/2000/svg"
   xmlns="http://www.w3.org/2000/svg"
   xmlns:sodipodi="http://sodipodi.sourceforge.net/DTD/sodipodi-0.dtd"
   xmlns:inkscape="http://www.inkscape.org/namespaces/inkscape"
   version="1.1"
   x="0px"
   y="0px"
   width="540px"
   height="210px"
   viewBox="0 0 18 7"
   id="svg10"
   sodipodi:docname="npm.svg"
   inkscape:version="0.92.4 (33fec40, 2019-01-16)">
  <metadata
     id="metadata16">
    <rdf:RDF>
      <cc:Work
         rdf:about="">
        <dc:format>image/svg+xml</dc:format>
        <dc:type
           rdf:resource="http://purl.org/dc/dcmitype/StillImage" />
      </cc:Work>
    </rdf:RDF>
  </metadata>
  <defs
     id="defs14" />
  <sodipodi:namedview
     pagecolor="#ffffff"
     bordercolor="#666666"
     borderopacity="1"
     objecttolerance="10"
     gridtolerance="10"
     guidetolerance="10"
     inkscape:pageopacity="0"
     inkscape:pageshadow="2"
     inkscape:window-width="1002"
     inkscape:window-height="619"
     id="namedview12"
     showgrid="false"
     inkscape:zoom="0.66666667"
     inkscape:cx="270"
     inkscape:cy="105"
     inkscape:window-x="160"
     inkscape:window-y="127"
     inkscape:window-maximized="0"
     inkscape:current-layer="svg10" />
  <path
     fill="#CB3837"
     d="M0,0h18v6H9v1H5V6H0V0z M1,5h2V2h1v3h1V1H1V5z M6,1v5h2V5h2V1H6z M8,2h1v2H8V2z M11,1v4h2V2h1v3h1V2h1v3h1V1H11z"
     id="path2"
     style="fill:#dddddd;fill-opacity:1" />
  <polygon
     fill="#FFFFFF"
     points="1,5 3,5 3,2 4,2 4,5 5,5 5,1 1,1 "
     id="polygon4"
     style="fill:#ffffff;fill-opacity:0" />
  <path
     fill="#FFFFFF"
     d="M6,1v5h2V5h2V1H6z M9,4H8V2h1V4z"
     id="path6"
     style="fill:#ffffff;fill-opacity:0" />
  <polygon
     fill="#FFFFFF"
     points="11,1 11,5 13,5 13,2 14,2 14,5 15,5 15,2 16,2 16,5 17,5 17,1 "
     id="polygon8"
     style="fill:#ffffbf;fill-opacity:0" />
</svg>
