<?xml version="1.0" encoding="UTF-8"?>
<svg id="0b188637-16b1-4c40-a71f-ceebe5cfc5ec" width="1200" height="800" data-name="Layer 1" version="1.1" viewBox="0 0 1200 800" xmlns="http://www.w3.org/2000/svg" xmlns:cc="http://creativecommons.org/ns#" xmlns:dc="http://purl.org/dc/elements/1.1/" xmlns:rdf="http://www.w3.org/1999/02/22-rdf-syntax-ns#" xmlns:xlink="http://www.w3.org/1999/xlink">
 <metadata>
  <rdf:RDF>
   <cc:Work rdf:about="">
    <dc:format>image/svg+xml</dc:format>
    <dc:type rdf:resource="http://purl.org/dc/dcmitype/StillImage"/>
    <dc:title>resume folder_2</dc:title>
   </cc:Work>
  </rdf:RDF>
 </metadata>
 <defs>
  <linearGradient id="linearGradient1145" x1="459.12" x2="459.12" y1="355.96" y2="192.97" gradientTransform="matrix(.50812 0 0 .58648 153.69 285.61)" gradientUnits="userSpaceOnUse">
   <stop stop-color="#b3b3b3" stop-opacity=".25" offset="0"/>
   <stop stop-color="#b3b3b3" stop-opacity=".1" offset=".54"/>
   <stop stop-color="#b3b3b3" stop-opacity=".05" offset="1"/>
  </linearGradient>
  <linearGradient id="linearGradient1413-2" x1="277.46" x2="277.46" y1="697.11" y2="669.52" gradientUnits="userSpaceOnUse" xlink:href="#a846f69c-c3f1-49f3-adee-5a4e8443ee4e"/>
  <linearGradient id="a846f69c-c3f1-49f3-adee-5a4e8443ee4e" x1="277.46" x2="277.46" y1="697.11" y2="669.52" gradientUnits="userSpaceOnUse">
   <stop stop-color="gray" stop-opacity=".25" offset="0"/>
   <stop stop-color="gray" stop-opacity=".12" offset=".54"/>
   <stop stop-color="gray" stop-opacity=".1" offset="1"/>
  </linearGradient>
  <linearGradient id="b1395abd-e294-4466-9af9-40f9f1f4ad0f-9" x1="748.15" x2="748.15" y1="567.16" y2="544.13" xlink:href="#a846f69c-c3f1-49f3-adee-5a4e8443ee4e"/>
  <linearGradient id="a8b1f8cd-6e4b-4699-9cd1-501c51b12a87-2" x1="766.05" x2="766.05" y1="409.23" y2="340.57" gradientTransform="matrix(.12326 .076978 -.076978 .12326 550.19 304.28)" xlink:href="#a846f69c-c3f1-49f3-adee-5a4e8443ee4e"/>
  <linearGradient id="ef97273a-5cfd-4109-a624-feeb24fdeadc-9" x1="331.05" x2="331.05" y1="577.85" y2="529.94" gradientTransform="matrix(.12326 .076978 -.076978 .12326 550.19 304.28)" xlink:href="#a846f69c-c3f1-49f3-adee-5a4e8443ee4e"/>
 </defs>
 <title>resume folder_2</title>
 <path d="m647.4 38.11c122.44-2.2484 246.68 3.3819 329.45 71.292 26.951 22.111 52.942 47.827 78.716 77.075 191.75 217.59 211.2 579.6-347.41 517.41-69.928 4.838-231.11 9.8735-296.42 3.4667-145.15-58.495-264.93 40.506-323.29-21.538-226.89-241.19 154.98-640.95 558.95-647.7z" fill="#222" stroke-width="1.0788"/>
 <g transform="matrix(3.8914 0 0 3.8914 -1623.8 -1234.9)">
  <g transform="matrix(.12326 .076978 -.076978 .12326 550.89 312.06)" opacity=".7">
   <circle cx="277.46" cy="683.31" r="13.8" fill="url(#linearGradient1413-2)"/>
  </g>
  <circle transform="rotate(31.985)" cx="672.88" cy="72.187" r="1.9154" opacity=".2" stroke-width=".14532"/>
  <g fill="#fff">
   <g stroke-width=".14532">
    <circle transform="rotate(31.985)" cx="662.07" cy="33.07" r=".74115"/>
    <circle transform="rotate(31.985)" cx="714.97" cy="76.087" r=".74115"/>
    <circle transform="rotate(31.985)" cx="683.72" cy="79.865" r=".41417"/>
    <circle transform="rotate(31.985)" cx="775.42" cy="59.81" r=".41417"/>
    <circle transform="rotate(31.985)" cx="751.74" cy="22.607" r=".41417"/>
    <circle transform="rotate(31.985)" cx="785.31" cy="40.773" r=".41417"/>
    <circle transform="rotate(31.985)" cx="675.15" cy="8.8013" r=".74115"/>
   </g>
   <polygon transform="matrix(.12326 .076978 -.076978 .12326 550.89 312.06)" points="152.94 592.21 148.4 592.21 148.4 587.67 146.55 587.67 146.55 592.21 142.01 592.21 142.01 594.06 146.55 594.06 146.55 598.59 148.4 598.59 148.4 594.06 152.94 594.06"/>
   <polygon transform="matrix(.12326 .076978 -.076978 .12326 550.89 312.06)" points="266.94 590.21 262.4 590.21 262.4 585.67 260.55 585.67 260.55 590.21 256.01 590.21 256.01 592.06 260.55 592.06 260.55 596.59 262.4 596.59 262.4 592.06 266.94 592.06"/>
   <polygon transform="matrix(.12326 .076978 -.076978 .12326 550.89 312.06)" points="429.94 682.21 425.4 682.21 425.4 677.67 423.55 677.67 423.55 682.21 419.01 682.21 419.01 684.06 423.55 684.06 423.55 688.59 425.4 688.59 425.4 684.06 429.94 684.06"/>
   <polygon transform="matrix(.12326 .076978 -.076978 .12326 550.89 312.06)" points="656.97 130.71 654.9 130.71 654.9 128.64 654.06 128.64 654.06 130.71 651.99 130.71 651.99 131.55 654.06 131.55 654.06 133.62 654.9 133.62 654.9 131.55 656.97 131.55"/>
   <polygon transform="matrix(.12326 .076978 -.076978 .12326 550.89 312.06)" points="951.97 320.71 949.9 320.71 949.9 318.64 949.06 318.64 949.06 320.71 946.99 320.71 946.99 321.55 949.06 321.55 949.06 323.62 949.9 323.62 949.9 321.55 951.97 321.55"/>
   <polygon transform="matrix(.12326 .076978 -.076978 .12326 550.89 312.06)" points="777.97 444.71 775.9 444.71 775.9 442.64 775.06 442.64 775.06 444.71 772.99 444.71 772.99 445.55 775.06 445.55 775.06 447.62 775.9 447.62 775.9 445.55 777.97 445.55"/>
   <polygon transform="matrix(.12326 .076978 -.076978 .12326 550.89 312.06)" points="69.97 522.71 67.9 522.71 67.9 520.64 67.06 520.64 67.06 522.71 64.99 522.71 64.99 523.55 67.06 523.55 67.06 525.62 67.9 525.62 67.9 523.55 69.97 523.55"/>
   <polygon transform="matrix(.12326 .076978 -.076978 .12326 550.89 312.06)" points="154.97 692.71 152.9 692.71 152.9 690.64 152.06 690.64 152.06 692.71 149.99 692.71 149.99 693.55 152.06 693.55 152.06 695.62 152.9 695.62 152.9 693.55 154.97 693.55"/>
   <polygon transform="matrix(.12326 .076978 -.076978 .12326 550.89 312.06)" points="421.97 155.71 419.9 155.71 419.9 153.64 419.06 153.64 419.06 155.71 416.99 155.71 416.99 156.55 419.06 156.55 419.06 158.62 419.9 158.62 419.9 156.55 421.97 156.55"/>
   <polygon transform="matrix(.12326 .076978 -.076978 .12326 550.89 312.06)" points="295.97 454.71 293.9 454.71 293.9 452.64 293.06 452.64 293.06 454.71 290.99 454.71 290.99 455.55 293.06 455.55 293.06 457.62 293.9 457.62 293.9 455.55 295.97 455.55"/>
   <polygon transform="matrix(.12326 .076978 -.076978 .12326 550.89 312.06)" points="322.97 368.71 320.9 368.71 320.9 366.64 320.06 366.64 320.06 368.71 317.99 368.71 317.99 369.55 320.06 369.55 320.06 371.62 320.9 371.62 320.9 369.55 322.97 369.55"/>
  </g>
  <g transform="matrix(.12326 .076978 -.076978 .12326 550.89 312.06)" opacity=".7">
   <circle cx="748.15" cy="555.65" r="11.52" fill="url(#b1395abd-e294-4466-9af9-40f9f1f4ad0f-9)"/>
  </g>
  <circle transform="rotate(31.985)" cx="741.28" cy="53.635" r="1.5506" opacity=".2" stroke-width=".14532"/>
  <circle transform="rotate(31.985)" cx="745.45" cy="64.551" r="1.7337" opacity=".2" stroke-width=".14532"/>
  <g transform="matrix(.12326 .076978 -.076978 .12326 550.89 312.06)" opacity=".1">
   <polygon points="415.73 567.88 433.34 567.88 432.16 559.83 416.91 559.83"/>
  </g>
  <g stroke-width=".14532">
   <path d="m620.73 409.02a5.0311 5.0311 0 0 0-0.56694-1.8961 4.989 4.989 0 1 0-7.0484 6.5757c0.09 0.0562 0.17996 0.11239 0.27364 0.15719a4.9875 4.9875 0 0 0 7.3383-4.8286z" fill="url(#a8b1f8cd-6e4b-4699-9cd1-501c51b12a87-2)"/>
   <path d="m619.76 411.96a4.7158 4.7158 0 0 1-6.2397 1.6511c-0.0826-0.0516-0.17303-0.0961-0.25808-0.14917a4.7172 4.7172 0 1 1 6.6623-6.2154 4.7361 4.7361 45 0 1 0.53179 1.7987 4.694 4.694 0 0 1-0.69632 2.9148z" opacity=".2"/>
   <path d="m616.36 406.31a5.0689 5.0689 0 0 0-0.79289-0.0582 1.1059 1.1059 0 0 0-0.49784 0.0866 0.43597 0.43597 0 0 0-0.26219 0.40338c0.0142 0.19394 0.18929 0.33067 0.3483 0.44368a1.3573 1.3573 0 0 0 0.54757 0.26999 1.3079 1.3079 45 0 0 0.43701-0.0303l0.53865-0.0971c0.19101-0.0315 0.40741-0.10366 0.45479-0.28653a0.43597 0.43597 0 0 0-0.16897-0.37966 1.4416 1.4416 0 0 0-0.95751-0.38723" opacity=".1"/>
  </g>
  <g transform="matrix(.12326 .076978 -.076978 .12326 550.89 312.06)" opacity=".1">
   <circle cx="714" cy="344.82" r="1.71"/>
  </g>
  <g transform="matrix(.12326 .076978 -.076978 .12326 550.89 312.06)" opacity=".1">
   <circle cx="748.72" cy="334" r="6.26"/>
  </g>
  <g transform="matrix(.12326 .076978 -.076978 .12326 550.89 312.06)" opacity=".1">
   <path transform="translate(-32.41,-42.89)" d="m792 355.35a8.54 8.54 0 1 1-9.67-8.56 32.59 32.59 0 0 1 9.67 8.56z"/>
  </g>
  <g transform="matrix(.12326 .076978 -.076978 .12326 550.89 312.06)" opacity=".1">
   <path transform="translate(-32.41,-42.89)" d="m792.58 393.58a32.37 32.37 0 0 1-24.48 13.7c0-0.45-0.06-0.9-0.06-1.36a15.38 15.38 0 0 1 24.54-12.34z"/>
  </g>
  <g stroke-width=".14532">
   <path d="m551.83 397.73a3.5096 3.5096 0 0 0-0.3936-1.3286 3.4878 3.4878 0 1 0-4.9201 4.5861c0.0629 0.0393 0.12327 0.077 0.19121 0.11084a3.4878 3.4878 0 0 0 5.12-3.3698z" fill="url(#ef97273a-5cfd-4109-a624-feeb24fdeadc-9)"/>
   <path d="m551.15 399.78a3.2901 3.2901 0 0 1-4.3533 1.1518c-0.0579-0.0362-0.12326-0.077-0.17626-0.11008a3.2901 3.2901 0 1 1 4.6476-4.3364 3.2945 3.2945 0 0 1 0.36892 1.2584 3.2727 3.2727 0 0 1-0.48698 2.0363z" opacity=".2"/>
   <path d="m548.78 395.84a3.4151 3.4151 0 0 0-0.55165-0.0412 0.8051 0.8051 0 0 0-0.3478 0.0604 0.30954 0.30954 0 0 0-0.17782 0.28473 0.4694 0.4694 0 0 0 0.24226 0.30893 0.94606 0.94606 0 0 0 0.38225 0.18903 0.91409 0.91409 0 0 0 0.30623-0.0212l0.37461-0.0676c0.13155-0.0241 0.28742-0.0707 0.31665-0.19975a0.29065 0.29065 0 0 0-0.11717-0.26507 0.99838 0.99838 0 0 0-0.66649-0.26888" opacity=".1"/>
  </g>
  <g transform="matrix(.12326 .076978 -.076978 .12326 550.89 312.06)" opacity=".1">
   <circle cx="284.93" cy="519.94" r="1.19"/>
  </g>
  <g transform="matrix(.12326 .076978 -.076978 .12326 550.89 312.06)" opacity=".1">
   <circle cx="309.16" cy="512.4" r="4.37"/>
  </g>
  <g transform="matrix(.12326 .076978 -.076978 .12326 550.89 312.06)" opacity=".1">
   <path transform="translate(-32.41,-42.89)" d="m349.12 540.26a6 6 0 1 1-6.75-6 22.67 22.67 0 0 1 6.75 6z"/>
  </g>
  <g transform="matrix(.12326 .076978 -.076978 .12326 550.89 312.06)" opacity=".1">
   <path transform="translate(-32.41,-42.89)" d="m349.56 566.93a22.59 22.59 0 0 1-17.08 9.56v-1a10.73 10.73 0 0 1 17.12-8.61z"/>
  </g>
  <polyline transform="matrix(.12326 .076978 -.076978 .12326 550.89 312.06)" points="837.69 539.42 859.49 551.02 842.47 570.06" fill="none"/>
  <g fill="#fff">
   <g stroke-width=".14532">
    <circle transform="rotate(31.985)" cx="771.32" cy="35.118" r=".2674"/>
    <circle transform="rotate(31.985)" cx="700.51" cy="57.391" r=".41417"/>
    <circle transform="rotate(31.985)" cx="713.91" cy="26.251" r=".41417"/>
    <circle transform="rotate(31.985)" cx="723.1" cy="54.055" r=".41417"/>
    <circle transform="rotate(31.985)" cx="728.69" cy="108.82" r=".41417"/>
    <circle transform="rotate(31.985)" cx="752.62" cy="82.569" r=".41417"/>
    <circle transform="rotate(31.985)" cx="662.44" cy="95.62" r=".41417"/>
    <circle transform="rotate(31.985)" cx="681.13" cy="120.82" r=".41417"/>
    <circle transform="rotate(31.985)" cx="788.53" cy="7.0435" r=".41417"/>
    <circle transform="rotate(31.985)" cx="757.82" cy="-18.515" r=".41417"/>
    <circle transform="rotate(31.985)" cx="740.9" cy="-29.085" r=".41417"/>
    <circle transform="rotate(31.985)" cx="694.04" cy="-17.521" r=".41417"/>
   </g>
   <polygon transform="matrix(.12326 .076978 -.076978 .12326 536.17 330.01)" points="419.06 155.71 416.99 155.71 416.99 156.55 419.06 156.55 419.06 158.62 419.9 158.62 419.9 156.55 421.97 156.55 421.97 155.71 419.9 155.71 419.9 153.64 419.06 153.64"/>
   <polygon transform="matrix(.12326 .076978 -.076978 .12326 522.41 352.11)" points="419.06 155.71 416.99 155.71 416.99 156.55 419.06 156.55 419.06 158.62 419.9 158.62 419.9 156.55 421.97 156.55 421.97 155.71 419.9 155.71 419.9 153.64 419.06 153.64"/>
   <polygon transform="matrix(.12326 .076978 -.076978 .12326 499.06 378.79)" points="419.06 155.71 416.99 155.71 416.99 156.55 419.06 156.55 419.06 158.62 419.9 158.62 419.9 156.55 421.97 156.55 421.97 155.71 419.9 155.71 419.9 153.64 419.06 153.64"/>
   <polygon transform="matrix(.12326 .076978 -.076978 .12326 513.24 415.91)" points="419.06 155.71 416.99 155.71 416.99 156.55 419.06 156.55 419.06 158.62 419.9 158.62 419.9 156.55 421.97 156.55 421.97 155.71 419.9 155.71 419.9 153.64 419.06 153.64"/>
   <polygon transform="matrix(.12326 .076978 -.076978 .12326 484.46 402.98)" points="419.06 155.71 416.99 155.71 416.99 156.55 419.06 156.55 419.06 158.62 419.9 158.62 419.9 156.55 421.97 156.55 421.97 155.71 419.9 155.71 419.9 153.64 419.06 153.64"/>
   <polygon transform="matrix(.12326 .076978 -.076978 .12326 493.22 379.21)" points="419.06 155.71 416.99 155.71 416.99 156.55 419.06 156.55 419.06 158.62 419.9 158.62 419.9 156.55 421.97 156.55 421.97 155.71 419.9 155.71 419.9 153.64 419.06 153.64"/>
   <polygon transform="matrix(.12326 .076978 -.076978 .12326 521.16 402.98)" points="419.06 155.71 416.99 155.71 416.99 156.55 419.06 156.55 419.06 158.62 419.9 158.62 419.9 156.55 421.97 156.55 421.97 155.71 419.9 155.71 419.9 153.64 419.06 153.64"/>
   <polygon transform="matrix(.12326 .076978 -.076978 .12326 554.93 410.07)" points="419.06 155.71 416.99 155.71 416.99 156.55 419.06 156.55 419.06 158.62 419.9 158.62 419.9 156.55 421.97 156.55 421.97 155.71 419.9 155.71 419.9 153.64 419.06 153.64"/>
   <polygon transform="matrix(.12326 .076978 -.076978 .12326 585.37 393.81)" points="419.06 155.71 416.99 155.71 416.99 156.55 419.06 156.55 419.06 158.62 419.9 158.62 419.9 156.55 421.97 156.55 421.97 155.71 419.9 155.71 419.9 153.64 419.06 153.64"/>
   <polygon transform="matrix(.12326 .076978 -.076978 .12326 624.15 376.29)" points="419.06 155.71 416.99 155.71 416.99 156.55 419.06 156.55 419.06 158.62 419.9 158.62 419.9 156.55 421.97 156.55 421.97 155.71 419.9 155.71 419.9 153.64 419.06 153.64"/>
   <polygon transform="matrix(.12326 .076978 -.076978 .12326 632.08 344.18)" points="419.06 155.71 416.99 155.71 416.99 156.55 419.06 156.55 419.06 158.62 419.9 158.62 419.9 156.55 421.97 156.55 421.97 155.71 419.9 155.71 419.9 153.64 419.06 153.64"/>
   <polygon transform="matrix(.12326 .076978 -.076978 .12326 582.46 324.59)" points="419.06 155.71 416.99 155.71 416.99 156.55 419.06 156.55 419.06 158.62 419.9 158.62 419.9 156.55 421.97 156.55 421.97 155.71 419.9 155.71 419.9 153.64 419.06 153.64"/>
   <polygon transform="matrix(.12326 -.076978 -.076978 -.12326 575.78 456.01)" points="416.99 155.71 416.99 156.55 419.06 156.55 419.06 158.62 419.9 158.62 419.9 156.55 421.97 156.55 421.97 155.71 419.9 155.71 419.9 153.64 419.06 153.64 419.06 155.71"/>
   <polygon transform="matrix(.12326 .076978 -.076978 .12326 539.09 390.05)" points="419.06 155.71 416.99 155.71 416.99 156.55 419.06 156.55 419.06 158.62 419.9 158.62 419.9 156.55 421.97 156.55 421.97 155.71 419.9 155.71 419.9 153.64 419.06 153.64"/>
   <polygon transform="matrix(.12326 .076978 -.076978 .12326 493.64 409.65)" points="419.06 155.71 416.99 155.71 416.99 156.55 419.06 156.55 419.06 158.62 419.9 158.62 419.9 156.55 421.97 156.55 421.97 155.71 419.9 155.71 419.9 153.64 419.06 153.64"/>
   <polygon transform="matrix(.12326 .076978 -.076978 .12326 480.29 380.46)" points="419.06 155.71 416.99 155.71 416.99 156.55 419.06 156.55 419.06 158.62 419.9 158.62 419.9 156.55 421.97 156.55 421.97 155.71 419.9 155.71 419.9 153.64 419.06 153.64"/>
   <polygon transform="matrix(.12326 .076978 -.076978 .12326 447.77 357.94)" points="419.06 155.71 416.99 155.71 416.99 156.55 419.06 156.55 419.06 158.62 419.9 158.62 419.9 156.55 421.97 156.55 421.97 155.71 419.9 155.71 419.9 153.64 419.06 153.64"/>
   <polygon transform="matrix(.12326 .076978 -.076978 .12326 455.69 323.33)" points="419.06 155.71 416.99 155.71 416.99 156.55 419.06 156.55 419.06 158.62 419.9 158.62 419.9 156.55 421.97 156.55 421.97 155.71 419.9 155.71 419.9 153.64 419.06 153.64"/>
   <polygon transform="matrix(.12326 .076978 -.076978 .12326 471.54 309.99)" points="419.06 155.71 416.99 155.71 416.99 156.55 419.06 156.55 419.06 158.62 419.9 158.62 419.9 156.55 421.97 156.55 421.97 155.71 419.9 155.71 419.9 153.64 419.06 153.64"/>
   <polygon transform="matrix(.12326 .076978 -.076978 .12326 519.07 308.74)" points="419.06 155.71 416.99 155.71 416.99 156.55 419.06 156.55 419.06 158.62 419.9 158.62 419.9 156.55 421.97 156.55 421.97 155.71 419.9 155.71 419.9 153.64 419.06 153.64"/>
   <polygon transform="matrix(.12326 .076978 -.076978 .12326 578.7 299.57)" points="419.06 155.71 416.99 155.71 416.99 156.55 419.06 156.55 419.06 158.62 419.9 158.62 419.9 156.55 421.97 156.55 421.97 155.71 419.9 155.71 419.9 153.64 419.06 153.64"/>
   <polygon transform="matrix(.12326 .076978 -.076978 .12326 617.48 305.4)" points="419.06 155.71 416.99 155.71 416.99 156.55 419.06 156.55 419.06 158.62 419.9 158.62 419.9 156.55 421.97 156.55 421.97 155.71 419.9 155.71 419.9 153.64 419.06 153.64"/>
   <polygon transform="matrix(.12326 .076978 -.076978 .12326 648.76 343.77)" points="419.06 155.71 416.99 155.71 416.99 156.55 419.06 156.55 419.06 158.62 419.9 158.62 419.9 156.55 421.97 156.55 421.97 155.71 419.9 155.71 419.9 153.64 419.06 153.64"/>
   <polygon transform="matrix(.12326 .076978 -.076978 .12326 641.25 377.96)" points="419.06 155.71 416.99 155.71 416.99 156.55 419.06 156.55 419.06 158.62 419.9 158.62 419.9 156.55 421.97 156.55 421.97 155.71 419.9 155.71 419.9 153.64 419.06 153.64"/>
   <polygon transform="matrix(.12326 .076978 -.076978 .12326 606.22 407.57)" points="419.06 155.71 416.99 155.71 416.99 156.55 419.06 156.55 419.06 158.62 419.9 158.62 419.9 156.55 421.97 156.55 421.97 155.71 419.9 155.71 419.9 153.64 419.06 153.64"/>
   <polygon transform="matrix(.12326 .076978 -.076978 .12326 568.28 424.25)" points="419.06 155.71 416.99 155.71 416.99 156.55 419.06 156.55 419.06 158.62 419.9 158.62 419.9 156.55 421.97 156.55 421.97 155.71 419.9 155.71 419.9 153.64 419.06 153.64"/>
   <polygon transform="matrix(.12326 .076978 -.076978 .12326 543.26 440.51)" points="419.06 155.71 416.99 155.71 416.99 156.55 419.06 156.55 419.06 158.62 419.9 158.62 419.9 156.55 421.97 156.55 421.97 155.71 419.9 155.71 419.9 153.64 419.06 153.64"/>
   <polygon transform="matrix(.12326 .076978 -.076978 .12326 521.16 440.93)" points="419.06 155.71 416.99 155.71 416.99 156.55 419.06 156.55 419.06 158.62 419.9 158.62 419.9 156.55 421.97 156.55 421.97 155.71 419.9 155.71 419.9 153.64 419.06 153.64"/>
  </g>
 </g>
 <rect transform="matrix(.94893 -.31548 .23147 .97284 0 0)" x="304.4" y="402.64" width="164.91" height="249.99" fill="#808080" fill-opacity=".7861" stroke-width=".54443"/>
 <g stroke-width=".54589">
  <rect transform="matrix(.95105 -.30903 .2265 .97401 0 0)" x="304.16" y="398.79" width="165.65" height="95.591" fill="url(#linearGradient1145)"/>
  <rect transform="matrix(.95105 -.30903 .2265 .97401 0 0)" x="379.9" y="401.68" width="161.04" height="244.96" fill="none"/>
  <rect transform="matrix(.95105 -.30903 .2265 .97401 0 0)" x="306.28" y="400.74" width="161.41" height="93.362" fill="#8e44ad"/>
  <rect transform="matrix(.95105 -.30903 .2265 .97401 0 0)" x="340.22" y="520.44" width="43.784" height="3.8532" fill="#bdbdbd"/>
  <rect transform="matrix(.95105 -.30903 .2265 .97401 0 0)" x="340.22" y="535.86" width="43.784" height="3.8532" fill="#f5f5f5"/>
  <rect transform="matrix(.95105 -.30903 .2265 .97401 0 0)" x="340.23" y="528.15" width="114.29" height="3.8532" fill="#69f0ae"/>
  <rect transform="matrix(.95105 -.30903 .2265 .97401 0 0)" x="369.54" y="435.64" width="43.784" height="3.8532" fill="#fff"/>
  <rect transform="matrix(.95105 -.30903 .2265 .97401 0 0)" x="369.54" y="444.2" width="70.501" height="3.8532" fill="#fff"/>
  <rect transform="matrix(.95105 -.30903 .2265 .97401 0 0)" x="382.9" y="455.34" width="43.784" height="4.2813" rx="1.5701" ry="1.8122" opacity=".2"/>
  <ellipse transform="matrix(.95105 -.30903 .2265 .97401 0 0)" cx="321.49" cy="524.94" rx="7.7945" ry="8.9966" fill="#69f0ae"/>
  <rect transform="matrix(.95105 -.30903 .2265 .97401 0 0)" x="340.23" y="557.7" width="43.784" height="3.8532" fill="#bdbdbd"/>
  <rect transform="matrix(.95105 -.30903 .2265 .97401 0 0)" x="340.23" y="573.12" width="43.784" height="3.8532" fill="#f5f5f5"/>
  <rect transform="matrix(.95105 -.30903 .2265 .97401 0 0)" x="340.23" y="565.41" width="114.29" height="3.8532" fill="#e0e0e0"/>
  <ellipse transform="matrix(.95105 -.30903 .2265 .97401 0 0)" cx="321.49" cy="562.2" rx="7.7945" ry="8.9966" fill="#e0e0e0"/>
  <rect transform="matrix(.95105 -.30903 .2265 .97401 0 0)" x="340.23" y="594.96" width="43.784" height="3.8532" fill="#bdbdbd"/>
  <rect transform="matrix(.95105 -.30903 .2265 .97401 0 0)" x="340.23" y="610.38" width="43.784" height="3.8532" fill="#f5f5f5"/>
  <rect transform="matrix(.95105 -.30903 .2265 .97401 0 0)" x="340.23" y="602.67" width="114.29" height="3.8532" fill="#e0e0e0"/>
  <ellipse transform="matrix(.95105 -.30903 .2265 .97401 0 0)" cx="321.49" cy="599.46" rx="7.7945" ry="8.9966" fill="#e0e0e0"/>
 </g>
 <polyline transform="matrix(.32524 0 0 .39956 309.18 128)" points="26.15 309.78 26.15 333.48 26.15 738.25 632.52 738.25 632.52 309.78 193.25 309.78" fill="none"/>
 <polyline transform="matrix(.50117 0 0 .59243 379.6 212.72)" points="193.25 309.78 123.17 261.41 26.15 261.41 26.15 309.78" fill="none"/>
 <text x="-235.39" y="-23.070015"/>
 <rect x="533.23" y="413" width="163.59" height="174.36" fill="none" stroke-width=".54489"/>
 <g>
  <g stroke-width=".80292">
   <path d="m1021.3 617.57 1.5499-1.0649 0.4572-0.31614c-6.9895-1.2739-12.221-7.5816-12.593-15.183-0.3717-7.601 4.2163-14.462 11.043-16.515l-0.078 6.7055 3.4329-7.2962c8.3626-0.41858 15.458 6.5209 15.847 15.499v0.92347c1.2103-1.413 2.2183-3.0111 2.9912-4.7421 1.4568-3.4859 1.48-7.421 1.3715-12.213-0.2323-9.4842-0.6121-19.043-1.1081-28.578-7.4041-0.87955-13.112-7.4104-13.46-15.399-0.023-0.49053-0.023-0.98203 0-1.4726v-0.36605c0-0.47422 0.07-0.94011 0.1393-1.406v-0.22462c0.055-0.39102 0.1318-0.77371 0.217-1.1564 0-0.14144 0.071-0.28286 0.1008-0.42429 0.1084-0.41598 0.2247-0.83195 0.3642-1.2313 0.046-0.1331 0.093-0.2579 0.1472-0.39101 0.1085-0.2995 0.2248-0.59068 0.3487-0.88187 0.063-0.14975 0.124-0.30783 0.1937-0.45757l0.055-0.11647c3.3083-7.0072 10.805-10.479 17.823-8.253l-0.1008 8.7272 3.3941-7.2047c4.4689 2.7637 7.3192 7.7805 7.563 13.311 0.063 1.4101-0.049 2.8229-0.3332 4.2014 0 0.11648-0.062 0.22463-0.085 0.3411s-0.1007 0.43261-0.1549 0.64061c-0.055 0.20798-0.1473 0.54076-0.2325 0.83195-0.085 0.29117-0.124 0.39932-0.1938 0.59899-0.07 0.19967-0.2247 0.56574-0.341 0.83196-0.07 0.15807-0.1317 0.32446-0.2015 0.49085-0.1936 0.41598-0.4028 0.83195-0.6275 1.2313-0.078 0.14143-0.1706 0.27455-0.2481 0.40765-0.1627 0.26623-0.3254 0.54077-0.5036 0.83196-0.1783 0.29117-0.2248 0.31614-0.341 0.46589-0.1162 0.14974-0.3332 0.44925-0.5114 0.66556-0.1783 0.2163-0.2557 0.2995-0.3874 0.44926-0.1318 0.14974-0.3721 0.41596-0.5735 0.61563l-0.3953 0.39935-0.6896 0.61563-0.3565 0.29951c-0.3642 0.28286-0.7283 0.54909-1.1157 0.83194l-0.2171 0.13312c-0.3187 0.2093-0.6472 0.4009-0.9842 0.57405l-0.4338 0.20799c-0.2713 0.13311-0.5503 0.26621-0.837 0.37437l-0.4959 0.19135c-0.279 0.1082-0.5578 0.19967-0.8447 0.28287l-0.5113 0.14143c-0.31 0.0832-0.6278 0.14975-0.9454 0.20798h-0.063c0.2066 4.0266 0.3926 8.0505 0.5579 12.072 3.8114-8.4127 13.433-11.644 21.031-7.0633l-2.6734 7.8869 5.5095-5.6822c2.9541 2.8992 4.7156 6.9388 4.8974 11.231 0.069 1.5069-0.062 3.0166-0.3874 4.4842-3.1029 14.4-21.04 17.251-27.896 4.4343v1.223c0.1007 4.2263 0.2247 9.4842-1.7358 14.143-1.4023 3.0269-3.291 5.7644-5.5794 8.0866-1.3793 1.5058-2.8051 2.9617-4.2619 4.3761-1.4412 2.0696-3.3187 3.7432-5.4785 4.8835-2.4023 1.9856-4.8871 3.8464-7.4546 5.5824l-1.3406 1.0483c-1.4413 0.96506-2.9213 1.9468-4.3704 2.9701l0.7749-0.0665c6.589-0.33063 12.621 3.9518 14.917 10.591l-9.4693 8.3195 10.422-2.5957c-0.041 11.948-11.646 19.788-21.697 14.659 0.2402 0.30782 0.4727 0.62396 0.7052 0.9401l1.3793 1.8469c6.1993 8.3861 7.8807 16.34 4.8277 22.404l-3.7118-2.1548c2.9679-5.9068-1.4956-13.461-4.4248-17.471-0.4416-0.60732-0.8988-1.2146-1.356-1.822-3.9365-5.2496-8.3999-11.206-8.2914-18.511 0.077-11.015 10.035-17.637 18.032-22.954z" fill="#d35400"/>
   <path d="m946.36 606.48-2.379-1.5973c-0.23248-0.14977-0.45723-0.30783-0.68198-0.46591 10.455-1.9239 18.274-11.366 18.831-22.738 0.55692-11.373-6.2972-21.643-16.507-24.733l0.11629 10.042-5.1376-10.924h-0.0621c-12.523-0.62563-23.146 9.7669-23.728 23.211v1.381c-1.8149-2.1199-3.3269-4.517-4.4867-7.1132-2.1775-5.208-2.2162-11.107-2.0457-18.303 0.34097-14.21 0.91438-28.528 1.6583-42.796 11.08-1.3239 19.622-11.097 20.147-23.053v-2.7621c-0.0466-0.70715-0.10849-1.406-0.20923-2.0965 0-0.11648 0-0.22463-0.0542-0.3411-0.093-0.58237-0.20922-1.1564-0.34096-1.7305-0.0466-0.2163-0.093-0.42429-0.14722-0.64059-0.16273-0.62397-0.33321-1.2313-0.54244-1.8386-0.0619-0.19967-0.13948-0.39102-0.21697-0.59069-0.16273-0.44925-0.33321-0.88187-0.51919-1.3145-0.10073-0.23294-0.19373-0.45756-0.29446-0.68219-0.029-0.0566-0.0548-0.11491-0.0775-0.17471-3.6942-7.8209-11.02-12.905-19.179-13.311-2.5225-0.1218-5.0465 0.20427-7.47 0.96507l0.14723 13.07-5.0756-10.815c-8.582 5.2568-12.979 15.898-10.849 26.256 0 0.1664 0.0852 0.33278 0.12398 0.50749 0.0698 0.32447 0.14723 0.64061 0.22472 0.95675 0.0775 0.31614 0.23247 0.83196 0.35646 1.2063 0.12398 0.37438 0.18598 0.59901 0.29447 0.89019 0.14723 0.43262 0.32545 0.83195 0.50368 1.2729 0.10073 0.24958 0.19373 0.49916 0.30221 0.74044 0.28671 0.62395 0.59667 1.2396 0.93763 1.8386 0.11624 0.21631 0.24797 0.41598 0.37195 0.61563 0.24797 0.40766 0.48819 0.83195 0.7749 1.198 0.16273 0.24127 0.34097 0.46589 0.51144 0.69883 0.17048 0.23295 0.50369 0.67389 0.7749 0.99835l0.57343 0.67388c0.27897 0.31614 0.56568 0.62396 0.86015 0.92347l0.59666 0.59068c0.33321 0.31614 0.68192 0.62396 1.0384 0.91515 0.17822 0.14974 0.3487 0.30781 0.53467 0.45757 0.53469 0.42429 1.0849 0.83195 1.6583 1.198 0.10849 0.0749 0.22473 0.1331 0.33321 0.19967 0.48045 0.29951 0.96864 0.59068 1.4646 0.83195l0.65866 0.31615c0.4107 0.19966 0.82139 0.391 1.2476 0.55739 0.24797 0.10821 0.49594 0.19967 0.77491 0.2912 0.41843 0.14974 0.84463 0.29117 1.2708 0.41597l0.77491 0.21631c0.47268 0.11647 0.94537 0.21631 1.4181 0.30781h0.093c-0.32029 6.0233-0.59926 12.047-0.8369 18.07-5.7145-12.594-20.124-17.427-31.5-10.566l4.014 11.797-8.2527-8.5026c-4.4272 4.3398-7.0646 10.392-7.3306 16.822-0.10507 2.2558 0.088 4.5162 0.57342 6.7138 2.1126 9.7327 9.5494 17.092 18.756 18.56 9.2071 1.4685 18.315-3.2515 22.972-11.904 0 0.61565 0 1.2313-0.0542 1.8386-0.14723 6.3311-0.34096 14.201 2.5959 21.231 1.9915 4.7671 5.1996 8.6273 8.3612 12.097 2.0664 2.2629 4.1948 4.4482 6.3852 6.5558 2.1507 3.1033 4.9583 5.6128 8.1907 7.3212 3.6162 2.9673 7.3409 5.7404 11.174 8.3195l2.4022 1.5974c2.1542 1.4393 4.3704 2.9202 6.5402 4.4509-0.37973 0-0.7749-0.0832-1.1469-0.0998-9.8681-0.49968-18.903 5.9133-22.34 15.857l14.173 12.388-15.599-3.8769c0.0321 17.938 17.481 29.705 32.546 21.947-0.35648 0.46589-0.70513 0.93178-1.0539 1.406-0.69742 0.93179-1.3948 1.8552-2.069 2.7704-9.2291 12.554-11.794 24.459-7.2298 33.544l5.5638-3.2197c-4.4479-8.8436 2.2394-20.158 6.6254-26.115 0.65862-0.90683 1.3406-1.8137 2.0302-2.7288 5.897-7.8619 12.577-16.78 12.398-27.712-0.37962-16.398-15.281-26.29-27.261-34.285z" fill="#d35400"/>
   <path d="m831.4 732.24s-26.819-7.6207-31.872-7.0633c-5.0524 0.55739 7.6638-26.073 16.133-22.829 8.4697 3.2446 19.775 11.797 26.23-0.27455s10.074-18.569 17.954-17.92c7.8808 0.64892 18.76-5.1997 26.626 0 7.8652 5.1997 13.383 11.597 24.247 11.323s21.147-26.265 29.617-15.874c8.4696 10.391 18.598 19.917 26.548 16.456 7.9505-3.4609 17.048 1.7388 24.293 7.5874 7.2453 5.8486 19.969 3.2529 24.797-1.2978 4.8277-4.5508 8.4774-7.7954 18.768-7.1465 10.291 0.64892 42.968 8.4443 55.072 18.195 12.104 9.7505-15.738 22.088-29.051 22.088s-15.738 3.9018-27.238 9.7505c-11.5 5.8486-30.26-3.2529-43.573 6.4975-13.313 9.7505-30.26-5.1997-53.259 0-22.999 5.1997-18.156 12.346-31.477 7.1465-13.321-5.1997-8.4697-7.1465-27.834-8.4443-19.365-1.2978-40.551 3.2446-42.372-5.1997-1.821-8.4443-13.948-10.399-21.178-12.995s17.567 0 17.567 0z" fill="#111"/>
  </g>
  <polygon transform="matrix(.7749 0 0 .83195 476.52 175.2)" points="501.94 545.52 511.4 507.27 511.42 507.18 568.82 500 744.61 561.58 731.21 602.65 730.63 604.44 708.2 673.2 669.8 699.15 483.33 620.74 501 549.28" fill="#f1c40f"/>
 </g>
 <polygon transform="matrix(.7749 0 0 .83195 476.52 175.2)" points="511.4 507.27 511.42 507.18 568.82 500 744.61 561.58 708.2 673.2 669.8 699.15 705.05 577.34" opacity=".1"/>
 <polygon transform="matrix(.7749 0 0 .83195 476.52 175.2)" points="553.24 514.93 550.15 513.05 581.13 509.8 713.85 556.72 710.11 558.68 579.18 512.51" opacity=".1"/>
 <polyline transform="matrix(.7749 0 0 .83195 476.52 175.2)" points="731.21 602.65 692.45 620.88 501.94 545.52 501 549.28 691.68 623.56 730.63 604.44" opacity=".1"/>
 <g fill="#3f3d56">
  <g stroke-width=".80325">
   <ellipse transform="matrix(.27783 -.96063 .94867 .31626 0 0)" cx="-308.77" cy="1015.9" rx="5.5167" ry="5.6166"/>
   <ellipse transform="matrix(.27783 -.96063 .94867 .31626 0 0)" cx="-318.94" cy="1156" rx="5.5167" ry="5.6166"/>
   <ellipse transform="matrix(.27783 -.96063 .94867 .31626 0 0)" cx="-389.22" cy="1154.9" rx="5.5167" ry="5.6166"/>
   <ellipse transform="matrix(.27783 -.96063 .94867 .31626 0 0)" cx="-375.42" cy="1018.6" rx="5.5167" ry="5.6166"/>
  </g>
  <path d="m890.4 600.65c-0.30996 1.0815-2.7974 0-5.959-1.0649-3.1616-1.0649-5.6258-2.2296-5.3158-3.3278 0.30996-1.0982 3.2856-1.6639 6.4472-0.60733 3.1616 1.0566 5.1454 3.9185 4.8276 5z" stroke-width=".80292"/>
  <ellipse transform="matrix(.27783 -.96063 .94867 .31626 0 0)" cx="-279.72" cy="1031.8" rx="2.0346" ry="5.4762" stroke-width=".80325"/>
  <g stroke-width=".80292">
   <path d="m957.32 626.95c-0.30996 1.0815-3.4173 0.0832-6.4317-0.92346-3.0144-1.0067-5.3623-2.1298-5.0523-3.2113 0.30996-1.0815 3.1693-1.6639 6.1992-0.69052 3.0298 0.97339 5.6103 3.7272 5.2849 4.8253z"/>
   <path d="m1021.6 651.74c-0.3487 1.2146-3.6497 0.15807-6.8501-0.90682-3.2004-1.0649-5.6876-2.2879-5.3389-3.5025 0.3486-1.2147 3.4094-1.9551 6.6097-0.8902 3.2004 1.0649 5.9359 4.0849 5.5793 5.2995z"/>
   <path d="m1040.4 648.82c-0.3565 1.2146-3.6498 0.15807-6.8502-0.90683s-5.6954-2.2879-5.3391-3.5025c0.3565-1.2146 3.4096-1.9551 6.6099-0.89018 3.2004 1.0649 5.9281 4.0849 5.5794 5.2995z"/>
   <path d="m1049.7 642.89c-0.3566 1.2146-3.0998 0.34942-5.7188-0.53245-2.6192-0.88187-4.6495-1.9468-4.3319-3.1614 0.3179-1.2147 2.9603-2.1132 5.6027-1.2313 2.6424 0.88187 4.7966 3.7105 4.448 4.9252z"/>
   <path d="m987.6 618.58c-0.27898 0.96506-3.0996 0.0748-5.7808-0.83196-2.6811-0.90682-4.8276-1.9218-4.5409-2.8869 0.2867-0.96506 2.8439-1.5225 5.556-0.62396 2.7122 0.89851 5.037 3.3694 4.7657 4.3428z"/>
  </g>
  <ellipse transform="matrix(.27783 -.96063 .94867 .31626 0 0)" cx="-272.16" cy="1052.4" rx="2.0346" ry="4.7273" stroke-width=".80325"/>
 </g>
 <g stroke-width=".80292">
  <path d="m955.32 659.61c0.68043-2.3543-0.25387-4.9-2.2472-6.1232 0.46114-0.56266 0.80702-1.2231 1.0152-1.9384 1.0994-3.7976-1.9742-7.4803-5.6103-6.7222 1.5653-5.786-5.6909-9.3927-8.7874-4.3677-2.715-2.1079-6.5556-0.73202-7.5476 2.7038 0 0.11648-0.0542 0.22463-0.0775 0.33278l-0.17048 0.0915c-2.3234-2.2464-5.9859-1.6118-7.5331 1.3053-1.5472 2.9171-0.18662 6.6226 2.7985 7.6215 0.25261 0.0861 0.51197 0.14733 0.7749 0.18304l0.0619 1.9301 23.449 10.291-0.15497-1.6639c1.8875-0.27342 3.4577-1.6934 4.0294-3.6439z" opacity=".1"/>
  <path d="m949.84 676.13c-1.0335 2.2023-3.352 3.3398-5.5793 2.7371-0.0256 0.74751-0.20275 1.48-0.51918 2.1464-1.2143 2.5974-4.1611 3.6445-6.579 2.3378-0.71818-0.38994-1.3377-0.96085-1.8055-1.6639-2.6233 5.2989-10.138 2.5026-9.1438-3.4027-0.53941-0.0797-1.063-0.25397-1.5498-0.5158-2.4148-1.3036-3.3893-4.4611-2.1775-7.055l0.15499-0.30782-0.0619-0.19134c-0.70916-0.0233-1.4049-0.21358-2.038-0.55741-5.8524-3.1838-1.4045-12.61 4.4479-9.426 0.22917 0.12348 0.44935 0.26531 0.65867 0.4243l1.2863-1.3394 23.588 10.125-1.1856 1.0815c1.165 1.6067 1.3613 3.7912 0.50373 5.6073z" opacity=".1"/>
  <path d="m935.45 648.28-5.6956 19.817c-0.87257 3.0165 0.59966 6.2398 3.3553 7.3461 2.9797 1.1896 6.2787-0.55096 7.222-3.8103l5.6956-19.825c0.91937-3.2447-0.87406-6.6559-3.9366-7.4876-2.8413-0.77777-5.7543 0.95934-6.6408 3.9601z" opacity=".1"/>
  <path d="m935.69 649.49-5.1686 17.77c-0.78659 2.7053 0.53845 5.598 3.0144 6.5807 2.671 1.0631 5.6259-0.49841 6.4704-3.4193l5.1376-17.779c0.84143-2.9227-0.77113-6.0056-3.5336-6.7554-2.5494-0.66264-5.14 0.91369-5.9203 3.6024z" fill="#3f3d56"/>
  <path d="m868.32 741.34s-26.819-7.6207-31.872-7.0549c-5.0524 0.56573 7.6638-26.082 16.133-22.829s19.775 11.789 26.23-0.28287c6.4549-12.072 10.074-18.561 17.954-17.912 7.8807 0.64893 18.76-5.1997 26.626 0 7.8653 5.1997 13.383 11.589 24.247 11.315 10.864-0.27454 21.147-26.265 29.624-15.865 8.4775 10.399 18.598 19.909 26.548 16.456 7.9503-3.4526 17.048 1.7388 24.285 7.5874 7.2375 5.8486 19.977 3.2446 24.797-1.2978 4.82-4.5425 8.4697-7.8037 18.76-7.1548s42.968 8.4526 55.072 18.195c12.104 9.7421-15.73 22.097-29.051 22.097s-15.73 3.8935-27.23 9.7421-30.268-3.2446-43.581 6.4975c-13.313 9.7422-30.26-5.1914-53.259 0-22.999 5.1914-18.156 12.346-31.469 7.1548-13.313-5.1914-8.4774-7.1548-27.842-8.4526-19.365-1.2978-40.551 3.2529-42.364-5.1997-1.8133-8.4526-13.909-10.391-21.178-12.995-7.2686-2.604 17.567 0 17.567 0z" fill="#111"/>
 </g>
 <path d="m1096 719.44c2.3248-4.584-0.3099-10.208-3.3165-14.293s-6.6796-8.3195-6.6021-13.552c0.1162-7.4876 7.5165-11.905 13.429-15.882 4.3902-2.9423 8.4379-6.4362 12.057-10.408 1.5193-1.5247 2.7735-3.3277 3.7041-5.3245 1.2243-2.9285 1.1933-6.2563 1.1159-9.4593-0.2532-10.682-0.7466-21.356-1.4801-32.022" fill="none" stroke="#3f3d56" stroke-miterlimit="10" stroke-width="3.2117"/>
 <g fill="#27ae60" stroke-width=".80292">
  <path d="m1126.1 617.92c-0.1675-3.9745-2.2129-7.5823-5.4244-9.5674l-2.4332 5.1747 0.077-6.2646c-1.1638-0.36668-2.3761-0.52411-3.5878-0.4659-9.6388 0.51323-13.901 13.268-6.7672 20.244 7.1342 6.9758 18.565 1.2307 18.143-9.1205z"/>
  <path d="m1106.7 696.94c-2.3511 4.8924-7.5718 7.3494-12.516 5.8905-4.9436-1.4589-8.2596-6.4352-7.9516-11.93 0.7041-12.564 16.902-15.17 20.994-3.3613l-6.796 5.9651 7.4779-1.8553c-0.01 1.8415-0.4219 3.6549-1.2088 5.2912z"/>
  <path d="m1101.3 674.27c-5.5986 0.41854-10.57-3.8163-11.464-9.7647-0.8936-5.9484 2.586-11.647 8.0233-13.139l-0.055 4.8087 2.4565-5.233c6.0116-0.32947 11.124 4.6587 11.391 11.115 0.064 1.3473-0.094 2.6962-0.465 3.985-1.3428 4.7122-5.3024 8.0071-9.8877 8.228z"/>
  <path d="m1127.7 655.41c-7.1603 0.28252-12.604-6.8327-10.956-14.319 1.6483-7.4862 9.4837-11.231 15.768-7.5364l-1.9217 5.6573 3.9519-4.0766c2.1178 2.0824 3.3802 4.9815 3.5103 8.0616 0.052 1.0816-0.04 2.1656-0.2712 3.2196-1.1032 5.0849-5.2234 8.7603-10.082 8.9934z"/>
 </g>
 <path d="m1079.6 714.16s8.586-0.28287 11.174-2.2629c2.588-1.98 13.173-4.3345 13.847-1.1647 0.6743 3.1697 12.894 15.807 3.2082 15.857-9.6862 0.05-22.519-1.614-25.099-3.3278-2.5804-1.7138-3.1306-9.1015-3.1306-9.1015z" fill="#656380" stroke-width=".80292"/>
 <path d="m1108 725.49c-9.694 0.0832-22.519-1.6639-25.099-3.3278-1.9683-1.2895-2.7509-5.8985-3.0143-8.0283h-0.2867s0.5424 7.4376 3.0996 9.1515c2.5571 1.7138 15.405 3.386 25.099 3.3278 2.7975 0 3.7583-1.0899 3.7118-2.6706-0.4107 0.93178-1.4491 1.5225-3.5103 1.5474z" opacity=".2" stroke-width=".80292"/>
 <g>
  <g stroke-width=".80292">
   <path d="m266.1 363.72c-0.0852 2.6955-1.5498 5.0915-2.9601 7.3295-1.883 2.9784-3.8745 6.0732-6.8501 7.7372 14.955 8.4775 32.375 10.45 48.648 5.5075 2.6114-0.83195 5.6955-2.5624 5.5406-5.4826-3.0996-0.90683-6.3077-1.8469-8.9424-3.8519-3.1461-2.396-5.2228-6.1232-6.5634-9.9834s-2.0225-7.9867-2.9601-12.005c-0.0614-0.41205-0.22762-0.79787-0.48045-1.1148-0.42663-0.32785-0.95063-0.4759-1.4723-0.41598l-10.322-0.19967c-4.2387 0-8.8416-0.1082-12.778 1.822-4.8974 2.4127-0.72066 6.1814-0.86015 10.657z" fill="#f4ac8c"/>
   <path d="m257.12 743.29c-2.5417 4.1598-5.866 7.6789-8.6557 11.647-2.7896 3.9684-5.1221 8.5941-5.1531 13.561-0.0749 0.63899 0.12135 1.2803 0.53468 1.7471 0.31731 0.21994 0.68416 0.34356 1.0616 0.35774l10.771 1.4809c1.6374 0.30588 3.3063 0.36748 4.9594 0.18303 1.7798-0.37738 3.4946-1.0481 5.0834-1.9884 1.214-0.51102 2.2713-1.3753 3.0531-2.4959 0.51919-0.91514 0.65867-2.0383 1.1546-2.9701 1.4956-2.8203 5.2616-2.6955 8.2527-2.2047 0.86013-8.5774-1.3483-17.13-3.5413-25.433-0.0946-0.50951-0.29889-0.98817-0.59667-1.3977-0.39152-0.40451-0.87521-0.69142-1.4026-0.83196-2.5804-0.90682-8.8184-4.4593-10.988-2.7954-1.5885 1.2313-3.2468 8.9352-4.5332 11.14z" fill="#2980b9"/>
   <path d="m309.06 760.2c2.069-1.0399 4.2774-2.3794 6.5092-1.8303 3.1461 0.75708 4.5487 4.7504 7.2221 6.6556 1.6428 1.1897 3.673 1.5391 5.6335 1.8136 6.0378 0.83832 12.122 1.2247 18.21 1.1564 1.945 0 4.3937-0.49917 4.8664-2.4958 0.47269-1.9967-1.3173-3.5857-2.9059-4.6256-3.4481-2.2709-7.0424-4.2755-10.756-5.9984-1.8252-0.72325-3.5508-1.7083-5.1298-2.9284-2.6579-2.3045-3.952-5.9152-5.1376-9.3511-0.95313-2.7621-1.8288-8.7272-3.7815-10.815-2.1387-2.2546-5.0136-0.75706-7.6948-0.12479-4.169 0.98171-9.0509 1.6639-11.732 5.6822-3.921 5.8819-6.9354 28.644 4.6959 22.862z" fill="#2980b9"/>
   <path d="m247.45 494.72c-3.5597 9.405-5.5177 19.42-5.7808 29.568-0.18597 7.5791 0.57343 15.133 1.3406 22.671 1.2243 12.202 2.4538 24.404 3.6885 36.606 0.39434 5.0742 1.1377 10.11 2.224 15.067 1.3406 5.5325 3.5181 10.815 5.0756 16.256 4.8199 16.955 3.4483 35.241 0.26347 52.638-0.42378 1.9085-0.64731 3.8618-0.66642 5.8237 0.093 2.9368 1.1468 5.7321 1.8288 8.5774 4.169 17.346-5.4243 36.606 0.8369 53.245 0.15898 0.59414 0.50729 1.1094 0.98413 1.4559 0.63542 0.25588 1.3405 0.22284 1.9528-0.0915 1.7837-0.66674 3.4957-1.537 5.1066-2.5957 3.3731 4.3825 7.7309 7.7698 12.662 9.842 3.673-0.97339 4.3627-5.7654 5.5638-9.6174 0.91571-2.7365 1.6612-5.5352 2.2317-8.3778 0.53116-3.4877 0.80323-7.0152 0.81364-10.549l3.1771-120.09-0.23247 36.647c-0.11093 2.9675 0.063 5.9394 0.51919 8.8686 0.46494 2.4376 1.3173 4.7754 1.8055 7.213 0.68967 3.4859 0.60443 7.0966 0.57343 10.666-0.19319 21.167 1.6112 42.302 5.3856 63.079 1.2398 6.8054 2.7276 13.677 5.897 19.709 0.21088 0.55959 0.62921 0.99967 1.1546 1.2146 0.67416 0.15808 1.2941-0.41598 1.8055-0.92347 6.2738-5.9544 15.363-7.0146 22.681-2.6456-0.6819-3.5275 2.4487-7.629 0.20923-10.308-0.64316-0.77371-1.604-1.1481-2.3247-1.822-1.4258-1.3062-1.7668-3.5025-1.9683-5.5075-0.87952-8.9241-0.87952-17.923 0-26.847 1.0926-11.156 3.5491-22.404 1.7358-33.444-1.3173-8.0117-4.8664-15.807-4.1612-23.869 0.46494-5.4077 2.8052-10.391 4.4169-15.541 7.0361-22.513 0-47.604 5.0911-70.716 1.1701-5.3078 2.9369-11.048 0.81364-15.998l3.2313-1.0566-6.7106-16.448c-1.4258-3.5025-2.9136-7.1049-5.4243-9.8004-4.2155-4.5009-10.515-5.7072-16.397-6.6556l-47.842-8.0117c-4.2387-0.74043-9.9575-2.4543-11.562 1.772z" fill="#34495e"/>
   <ellipse cx="277.57" cy="341.62" rx="20.481" ry="21.988" fill="#f4ac8c"/>
  </g>
  <path d="m261.07 375.52c-1.3873-0.78577-3.0258-1.0619-4.61-0.777-0.77886 0.26537-1.5092 0.64644-2.1643 1.1292l-13.527 9.0754c-1.9392 1.1527-3.6683 2.6016-5.1186 4.289-2.3158 3.0148-2.6838 7.0241-2.3807 10.754 0.67093 8.4124 4.2204 16.348 6.1467 24.574 1.9262 8.2258 1.9262 17.612-3.6144 24.201-0.95296 0.94513-1.7486 2.0248-2.3591 3.2012-0.33018 1.0046-0.4802 2.0554-0.4437 3.108-0.20042 3.9378-0.11363 7.8842 0.25973 11.81 0.606 5.0661 2.1643 9.9871 3.0084 15.012 1.4826 8.5574 1.0822 17.332 2.2292 25.9-0.21609 2.4248 1.7866 4.505 4.3286 4.4962 6.6887 0.93706 13.445 1.3632 20.204 1.2743 7.824 0 15.637-0.41441 23.45-0.80809l35.56-1.7923c2.1556 0.26514 4.0414-1.3918 3.9499-3.4706 3.1166-14.318 6.2549-28.894 4.7831-43.44-0.95229-9.3965-3.8092-18.503-6.493-27.578-2.1643-7.3556-4.242-15.074-2.6188-22.564 1.0822-4.9417 3.7118-9.5105 4.3936-14.504 0.79871-5.2673-1.0094-10.59-4.8914-14.4-3.9823-3.6571-9.7935-5.0453-13.765-8.7128-1.0906-1.186-2.2774-2.2876-3.5495-3.2945-1.3241-1.0106-3.1335-1.2116-4.6641-0.518-0.73211 0.49706-1.3386 1.1449-1.7747 1.8959-3.4629 5.035-8.6573 13.333-15.962 12.028-7.8998-1.3572-13.419-7.6768-20.377-10.888z" fill="#95a5a6" stroke-width="1.0588"/>
  <path d="m317.57 516.45c-1.8133 1.4559-3.1616 4.0433-2.3247 6.2979 2.4634 0.47193 5.0027 0.0933 7.2531-1.0815 1.4491-0.75708 3.2546-1.822 4.5099-0.7238 0.40661 0.41994 0.72153 0.93136 0.92214 1.4975 1.3579 3.0908 3.0039 6.0259 4.9129 8.7604 1.3793-0.69885 2.8284-1.4642 3.6575-2.837 0.50037-0.93518 0.82425-1.967 0.95313-3.0366 0.48622-2.677 0.84571-5.3788 1.0771-8.0949 0.16274-1.9717 0.19373-4.1598-1.0616-5.624-5.3856-6.2396-15.428 1.2562-19.899 4.842z" fill="#f4ac8c" stroke-width=".80292"/>
  <path d="m261.78 337.15c-0.0589-0.66413 0.0289-1.3342 0.25579-1.9521 0.6684-1.3197 2.4178-0.91646 3.738-0.5957 5.3142 1.4939 10.909 0.14662 16.372 0.4949 5.4627 0.34826 11.627 3.3818 12.724 9.339 3.9704-3.1248 7.3933-7.029 10.1-11.52 1.5183-2.5203 2.8386-5.4072 2.6323-8.4317-0.29707-4.3625-3.5895-7.6252-6.6427-10.393l-9.077-8.2484c-1.194-1.2185-2.5745-2.19-4.0764-2.8686-2.096-0.79734-4.3899-0.42159-6.6014-0.42159-6.6014 0-13.673-3.336-19.565 0-2.4755 1.4114-4.3074 3.8126-6.0981 6.1588l-8.1115 10.677c-0.61281 0.67743-1.0613 1.5161-1.3038 2.4379-0.23107 1.3014 0.37133 2.5936 0.58587 3.895 0.37958 2.3829-0.54463 4.9307 0.16505 7.2219 1.18 3.8034 5.3389 4.335 7.8804 6.5162 0.94897 0.81567 2.426 3.5651 3.5565 3.5285 2.0052-0.0367 3.408-4.0784 3.4658-5.838z" stroke-width=".86963"/>
  <g stroke-width=".80292">
   <path d="m314.15 376.92c4.3352-1.0991 8.9011-0.19359 12.584 2.4959 5.8583 4.3095 8.2682 12.18 10.306 19.484l4.5642 16.381c1.9992 7.1797 4.014 14.426 4.4789 21.905 0.42619 6.797-0.4417 13.602-1.3096 20.35-1.2011 9.3428 1.6273 19.584 1.666 29.01 0 10.815-0.0619 22.288-5.1918 31.614-0.43208-1.6558-1.5888-2.9815-3.0996-3.5524-1.4846-0.54415-3.0419-0.82514-4.6107-0.83194l-13.638-0.94011c1.1621-2.1084 2.1624-4.3148 2.9911-6.5974 5.2306-14.426 3.2236-30.549 1.1391-45.857-0.16429-1.4596-0.42322-2.9052-0.77491-4.3261-1.3748-5.4609-1.6887-11.167-0.92212-16.764 0.31214-2.5312 0.39259-5.0892 0.24021-7.6373-0.0237-1.0759-0.23664-2.1372-0.62766-3.1281-0.40127-0.8152-0.90733-1.5658-1.5033-2.2296l-2.7586-3.3278c-0.22473-10.067-1.697-20.208-3.1539-30.158-0.70707-5.2624-0.83451-10.596-0.3797-15.89z" fill="#95a5a6"/>
   <path d="m261.45 416.13c2.4952-5.7322-0.0619-12.346-1.7668-18.403-1.3582-4.8134-2.1674-9.786-2.41-14.809-0.16245-1.5802 2e-3 -3.1795 0.48045-4.6839 0.51724-1.5233 1.8117-2.5851 3.3166-2.7205 2.2253 3.5738 3.1136 7.9171 2.4874 12.163 1.4439-0.3996 2.9084-0.70795 4.3859-0.92346 3.9548-0.57062 7.7187 1.9958 8.9191 6.0816 2.4564 8.4526 3.2933 17.471-0.13174 25.375-1.0919 2.339-2.3592 4.5788-3.7893 6.6972l-7.4701 11.714c-0.51142 0.83195-1.1391 1.6639-2.038 1.8053-0.89889 0.14143-1.8365-0.73212-2.4952-1.5391-2.2705-2.7537-6.3-6.7638-5.8582-10.557 0.44169-3.7937 4.8819-6.8303 6.3697-10.2z" fill="#f4ac8c"/>
   <path d="m244.18 380.8c-7.5863-0.92346-16.273 1.2812-20.24 8.3195-1.9915 3.5524-2.4874 7.812-2.8361 11.938-0.48819 5.7821-0.77491 11.581-1.0461 17.371l-1.4646 30.483c-0.17823 3.644-0.3487 7.2962-0.41069 10.94-0.17651 2.8488 0.10929 5.7089 0.84464 8.4526 0.93763 2.9534 2.7974 5.4493 4.6494 7.8786s4.169 4.9335 6.8889 4.2263c1.1131-0.39452 2.1244-1.0642 2.9524-1.9551l6.1992-5.7571c4.2154-3.8852 8.4774-7.8287 11.686-12.704 1.5498-2.3461 2.8206-4.8835 4.3859-7.213 4.6029-6.8553 11.686-12.055 14.111-20.092-2.3247-0.13311-5.7033-0.95674-6.7726-3.1697-0.56568-1.173-0.64317-2.5707-1.2708-3.6939-0.95312-1.7138-3.0996-2.6456-3.4173-4.609-6.0907 5.2662-11.19 11.381-16.056 17.945l1.976-8.2446c0.13837-0.77435 0.43767-1.5052 0.87563-2.1381 0.69324-0.65187 1.4778-1.1825 2.3247-1.5724 2.41-1.5641 3.3243-4.8004 3.8125-7.7787 2.1785-13.388-0.38664-27.167-7.1911-38.628z" fill="#95a5a6"/>
  </g>
  <path d="m412.7 301.48c-10.778 3.8492-16.389 15.696-12.54 26.474 3.0828 8.6318 11.271 13.928 19.948 13.744 1.0363-0.17766 1.193-0.89349 1.0102-1.4055-0.16547-0.46329-0.7385-1.9907-1.322-3.6244-4.5789 2.6526-6.5958 1.0085-7.3778 0.0505-0.41974-0.48243-1.989-1.874-2.9835-2.0412-0.81337-0.12191-2.1109-0.67576-0.48594-1.2836 1.5274-0.57302 3.1385 0.47372 3.7133 0.9283 2.8094 2.3234 5.3174 0.49286 6.2561-0.41978-0.28215-1.3289-0.0749-2.3652 0.31175-3.0532-4.5144 1.0625-9.6507 0.99979-12.315-6.4616-0.75764-2.1214-0.62877-4.147 0.12713-5.9566-0.36925-0.418-1.7661-2.1736-1.6512-5.239 0 0 1.4508-1.0955 6.0785 0.0836 1.4038-0.99625 2.9835-1.8079 4.6416-2.4001 1.6581-0.59217 3.3945-0.9649 5.1118-1.0834 2.825-3.8683 4.6503-3.9153 4.6503-3.9153 2.0308 2.299 2.0622 4.5423 2.0413 5.0996 1.7312 0.92133 3.1054 2.3826 3.8718 4.5284 2.6735 7.4857-1.294 10.772-5.4601 12.81 0.92484 0.35704 1.9524 1.3097 2.6056 3.1385 0.93182 2.609 1.6564 4.7147 1.8915 5.3731 0.18289 0.51205 0.76634 0.99102 1.672 0.44761 6.7821-5.3366 9.7534-14.646 6.6792-23.253-3.8492-10.778-15.696-16.389-26.474-12.54z" clip-rule="evenodd" fill="#fff" fill-rule="evenodd" stroke-width="2.5892"/>
 </g>
 <g transform="rotate(7.2534 438.25 744.22)">
  <rect transform="matrix(.99224 -.12431 .089302 .996 0 0)" x="581.87" y="373.77" width="163.37" height="252.93" fill="#808080" fill-opacity=".71658" stroke-width=".54506"/>
  <g transform="translate(-6.1132 -1.466)">
   <g stroke-width=".54506">
    <rect transform="matrix(.99224 -.12431 .089302 .996 0 0)" x="589.74" y="377.71" width="159.55" height="94.16" fill="#8e44ad"/>
    <rect transform="matrix(.99224 -.12431 .089302 .996 0 0)" x="623.3" y="506.21" width="112.97" height="3.8861" fill="#69f0ae"/>
    <rect transform="matrix(.99224 -.12431 .089302 .996 0 0)" x="652.28" y="421.55" width="69.691" height="3.8861" fill="#fff"/>
    <rect transform="matrix(.99224 -.12431 .089302 .996 0 0)" x="623.31" y="536.01" width="43.281" height="3.8861" fill="#bdbdbd"/>
    <rect transform="matrix(.99224 -.12431 .089302 .996 0 0)" x="623.31" y="551.56" width="43.281" height="3.8861" fill="#f5f5f5"/>
    <rect transform="matrix(.99224 -.12431 .089302 .996 0 0)" x="623.31" y="543.79" width="112.97" height="3.8861" fill="#e0e0e0"/>
    <ellipse transform="matrix(.99224 -.12431 .089302 .996 0 0)" cx="604.78" cy="540.55" rx="7.7049" ry="9.0735" fill="#e0e0e0"/>
    <rect transform="matrix(.99224 -.12431 .089302 .996 0 0)" x="623.31" y="573.59" width="43.281" height="3.8861" fill="#bdbdbd"/>
    <rect transform="matrix(.99224 -.12431 .089302 .996 0 0)" x="623.3" y="589.14" width="43.281" height="3.8861" fill="#f5f5f5"/>
    <rect transform="matrix(.99224 -.12431 .089302 .996 0 0)" x="623.3" y="581.36" width="112.97" height="3.8861" fill="#e0e0e0"/>
    <ellipse transform="matrix(.99224 -.12431 .089302 .996 0 0)" cx="604.78" cy="578.12" rx="7.7049" ry="9.0735" fill="#e0e0e0"/>
   </g>
   <path d="m650.02 321.02c-11.026 3.066-17.473 14.48-14.407 25.506 2.4556 8.8307 10.242 14.701 18.91 15.139 1.0463-0.10315 1.2541-0.8056 1.1084-1.3294-0.13183-0.47396-0.59375-2.0386-1.0585-3.7099-4.7574 2.3172-6.6511 0.53265-7.3624-0.47891-0.38405-0.51131-1.8494-2.0119-2.8294-2.25-0.80253-0.17994-2.057-0.82546-0.3926-1.3152 1.5646-0.46196 3.0964 0.69767 3.6371 1.1923 2.6354 2.519 5.2683 0.87309 6.2701 0.0302-0.18606-1.3457 0.095-2.3645 0.53001-3.0229-4.579 0.73582-9.6975 0.3048-11.82-7.3285-0.60348-2.1703-0.32961-4.1814 0.55416-5.9321-0.33829-0.44342-1.6056-2.2947-1.271-5.3439 0 0 1.5257-0.98861 6.0568 0.51945 1.4716-0.89295 3.1055-1.5892 4.8018-2.0608 1.6963-0.4717 3.455-0.71887 5.1764-0.7138 3.0952-3.6556 4.9192-3.5716 4.9192-3.5716 1.8606 2.4388 1.731 4.6786 1.6701 5.233 1.6607 1.0432 2.9265 2.5993 3.5369 4.7945 2.1296 7.6582-2.0636 10.652-6.3651 12.385 0.89683 0.42247 1.8534 1.4464 2.3737 3.3174 0.74223 2.6692 1.3138 4.8214 1.5011 5.4949 0.14568 0.52385 0.69326 1.0434 1.6356 0.56641 7.1475-4.8362 10.779-13.908 8.3304-22.714-3.066-11.026-14.48-17.473-25.506-14.407z" clip-rule="evenodd" fill="#fff" fill-rule="evenodd" stroke-width="2.5892"/>
   <rect transform="rotate(-6.5208)" x="640.89" y="402.49" width="43.186" height="3.8923" fill="#fff" stroke-width=".54489"/>
   <rect transform="rotate(-6.5208)" x="643.75" y="425.48" width="43.186" height="4.3247" rx="1.5486" ry="1.8306" opacity=".2" stroke-width=".54489"/>
  </g>
 </g>
</svg>
