<?xml version="1.0" standalone="no"?>
<!DOCTYPE svg PUBLIC "-//W3C//DTD SVG 20010904//EN"
 "http://www.w3.org/TR/2001/REC-SVG-20010904/DTD/svg10.dtd">
<svg version="1.0" xmlns="http://www.w3.org/2000/svg"
 width="512.000000pt" height="512.000000pt" viewBox="0 0 512.000000 512.000000"
 preserveAspectRatio="xMidYMid meet">
<metadata>
Created by potrace 1.11, written by Peter Selinger 2001-2013
</metadata>
<g transform="translate(0.000000,512.000000) scale(0.100000,-0.100000)"
fill="#000000" stroke="none">
<path d="M1759 4906 c-2 -2 -22 -6 -44 -10 -108 -16 -194 -46 -301 -107 -148
-84 -256 -206 -694 -784 -79 -104 -178 -235 -220 -290 -42 -55 -99 -130 -128
-167 -105 -139 -117 -203 -71 -379 23 -90 27 -178 16 -411 -8 -185 18 -276
108 -376 56 -62 117 -104 285 -195 l135 -72 1 -160 c1 -306 49 -522 170 -774
50 -102 148 -263 195 -316 9 -11 36 -42 60 -70 228 -263 548 -455 899 -539
142 -33 169 -36 360 -41 289 -7 531 46 782 171 362 179 632 454 802 816 65
136 122 320 140 448 2 19 8 56 11 81 4 25 8 104 9 176 l2 131 49 57 c185 214
388 528 451 697 55 151 68 214 68 333 0 127 -23 216 -84 337 -87 171 -183 277
-559 618 -52 47 -99 90 -105 95 -6 6 -83 75 -171 155 -88 80 -185 168 -215
197 -169 159 -293 238 -415 264 -38 8 -159 13 -335 14 -151 1 -284 5 -296 8
-11 3 -47 8 -80 11 -32 4 -81 11 -109 16 -61 12 -224 38 -285 46 -25 3 -58 7
-75 10 -35 6 -351 15 -356 10z"/>
</g>
</svg>
